<?xml version="1.0" encoding="UTF-8" standalone="no"?>
<!-- Created with Inkscape (http://www.inkscape.org/) -->

<svg
   version="1.1"
   id="svg2"
   width="321.26001"
   height="321.26001"
   viewBox="0 0 321.26001 321.26001"
   sodipodi:docname="logo_Sapienza (cmyk).ai"
   xmlns:inkscape="http://www.inkscape.org/namespaces/inkscape"
   xmlns:sodipodi="http://sodipodi.sourceforge.net/DTD/sodipodi-0.dtd"
   xmlns="http://www.w3.org/2000/svg"
   xmlns:svg="http://www.w3.org/2000/svg">
  <defs
     id="defs6">
    <clipPath
       clipPathUnits="userSpaceOnUse"
       id="clipPath16">
      <path
         d="M 0,240.945 H 240.945 V 0 H 0 Z"
         id="path14" />
    </clipPath>
  </defs>
  <sodipodi:namedview
     id="namedview4"
     pagecolor="#ffffff"
     bordercolor="#000000"
     borderopacity="0.25"
     inkscape:showpageshadow="2"
     inkscape:pageopacity="0.0"
     inkscape:pagecheckerboard="0"
     inkscape:deskcolor="#d1d1d1" />
  <g
     id="g8"
     inkscape:groupmode="layer"
     inkscape:label="logo_Sapienza (cmyk)"
     transform="matrix(1.3333333,0,0,-1.3333333,0,321.26)">
    <g
       id="g10">
      <g
         id="g12"
         clip-path="url(#clipPath16)">
        <g
           id="g18"
           transform="translate(59.5288,111.0703)">
          <path
             d="m 0,0 c 0,-9.381 -6.359,-17.008 -14.175,-17.008 -7.817,0 -14.173,7.627 -14.173,17.008 0,9.379 6.356,17.008 14.173,17.008 C -6.359,17.008 0,9.379 0,0"
             style="fill:#7d0a27;fill-opacity:1;fill-rule:evenodd;stroke:none"
             id="path20" />
        </g>
        <g
           id="g22"
           transform="translate(56.3364,106.0215)">
          <path
             d="m 0,0 c -0.051,-0.156 -0.173,-0.4 -0.392,-0.578 l -0.173,0.162 c 0.195,0.129 0.344,0.353 0.386,0.479 0.093,0.292 0.024,0.548 -0.232,0.63 -0.123,0.045 -0.238,-0.048 -0.351,-0.154 -0.176,-0.16 -0.319,-0.365 -0.527,-0.484 -0.16,-0.1 -0.345,-0.159 -0.597,-0.076 -0.347,0.117 -0.461,0.535 -0.338,0.937 0.045,0.131 0.12,0.287 0.226,0.49 C -1.835,1.359 -1.718,1.32 -1.624,1.289 -1.574,1.271 -1.526,1.25 -1.549,1.174 -1.565,1.125 -1.595,1.098 -1.777,1.119 -1.854,1.135 -1.966,1.07 -2.042,0.832 -2.12,0.578 -2.074,0.34 -1.837,0.262 c 0.168,-0.059 0.42,0.246 0.519,0.359 0.112,0.127 0.245,0.27 0.403,0.348 0.146,0.076 0.324,0.097 0.513,0.035 C 0.013,0.863 0.132,0.418 0,0 m -2.505,-0.467 c -0.016,-0.054 0.046,-0.07 0.087,-0.09 l 1.829,-0.879 -0.137,-0.384 -1.859,0.896 c -0.119,0.057 -0.094,0.051 -0.163,-0.053 -0.029,-0.046 -0.056,-0.111 -0.114,-0.084 -0.059,0.028 -0.071,0.081 -0.035,0.147 0.048,0.084 0.122,0.226 0.154,0.299 0.031,0.074 0.079,0.199 0.113,0.291 0.027,0.072 0.075,0.095 0.13,0.068 0.043,-0.021 0.032,-0.082 -0.005,-0.211 m 0.808,-1.959 c 0.229,-0.148 0.317,-0.394 0.171,-0.64 -0.061,-0.1 -0.136,-0.194 -0.212,-0.268 -0.023,-0.023 -0.023,-0.023 -0.045,-0.01 l -0.796,0.514 0.066,0.109 c 0.256,0.42 0.545,0.469 0.816,0.295 m -1.087,0.401 c 0.19,-0.123 0.319,-0.293 0.138,-0.598 l -0.072,-0.119 -0.658,0.426 c -0.049,0.033 -0.068,0.043 -0.042,0.089 l 0.032,0.053 c 0.141,0.233 0.37,0.299 0.602,0.149 m 1.265,-0.038 c -0.321,0.208 -0.612,0.081 -0.832,-0.152 0.019,0.238 -0.074,0.438 -0.289,0.574 -0.242,0.157 -0.607,0.034 -0.812,-0.306 -0.067,-0.112 -0.119,-0.229 -0.19,-0.344 -0.044,-0.076 -0.127,-0.197 -0.171,-0.248 -0.034,-0.041 -0.073,-0.08 -0.098,-0.121 -0.033,-0.055 -0.02,-0.113 0.029,-0.145 0.042,-0.025 0.063,-0.015 0.129,0.086 0.08,0.117 0.1,0.1 0.199,0.039 l 0.076,-0.052 1.666,-1.073 c 0,0 0.141,0.276 0.175,0.33 0.072,0.112 0.142,0.157 0.214,0.282 0.25,0.408 0.252,0.904 -0.096,1.13 M -5.267,-4.699 C -5.308,-4.785 -5.298,-4.9 -5.281,-4.969 l 0.463,-2.123 -0.21,-0.183 c -0.76,0.529 -1.268,0.818 -1.889,1.265 -0.046,0.035 -0.071,0.065 -0.126,0.03 -0.102,-0.065 -0.132,-0.055 -0.159,-0.012 -0.031,0.049 -0.022,0.105 0.043,0.137 0.088,0.046 0.229,0.132 0.303,0.177 0.093,0.053 0.162,0.008 0.236,-0.045 L -5.099,-6.785 -5.501,-5 c -0.021,0.115 -0.236,-0.098 -0.297,-0.002 -0.031,0.053 -0.008,0.092 0.055,0.131 0.112,0.074 0.303,0.273 0.406,0.396 0.051,0.057 0.113,0.041 0.147,-0.009 0.015,-0.028 -0.02,-0.108 -0.077,-0.215 m -3.347,-2.014 c -0.133,-0.062 -0.142,-0.103 -0.095,-0.283 0.056,-0.211 0.517,-1.957 0.517,-1.957 l -0.418,-0.11 -0.455,1.784 -0.463,-1.78 -0.19,-0.064 -1.053,1.559 0.121,-1.778 -0.367,-0.109 -0.132,2.035 c -0.015,0.209 -0.046,0.254 -0.168,0.266 -0.103,0.009 -0.146,0.037 -0.155,0.089 -0.014,0.088 0.059,0.1 0.097,0.102 0.101,0.002 0.361,-0.01 0.448,-0.004 0.074,0.002 0.114,-0.008 0.173,-0.094 l 1.081,-1.648 0.49,1.883 c 0.026,0.092 0.084,0.136 0.152,0.156 0.088,0.021 0.305,0.105 0.396,0.131 0.036,0.01 0.125,0.014 0.138,-0.065 0.009,-0.058 -0.03,-0.072 -0.117,-0.113 m -3.131,-0.437 c -0.056,-0.01 -0.102,-0.038 -0.141,-0.096 l -1.322,-1.875 -0.272,0.037 c -0.137,0.939 -0.239,1.52 -0.34,2.299 -0.005,0.055 -10e-4,0.094 -0.065,0.113 -0.116,0.031 -0.128,0.065 -0.116,0.113 0.014,0.057 0.063,0.086 0.128,0.061 0.093,-0.037 0.251,-0.082 0.333,-0.109 0.099,-0.041 0.114,-0.122 0.126,-0.209 l 0.232,-1.881 1.046,1.504 c 0.065,0.095 -0.23,0.113 -0.204,0.226 0.017,0.057 0.058,0.067 0.13,0.045 0.09,-0.029 0.45,-0.058 0.548,-0.058 0.075,0 0.108,-0.03 0.099,-0.096 -0.009,-0.045 -0.054,-0.061 -0.182,-0.074 m -2.675,0.711 c -0.051,0.017 -0.065,-0.045 -0.088,-0.09 l -0.897,-1.828 -0.366,0.154 0.913,1.857 c 0.06,0.121 0.05,0.098 -0.045,0.172 -0.045,0.033 -0.11,0.063 -0.078,0.121 0.027,0.059 0.078,0.069 0.144,0.028 0.076,-0.047 0.215,-0.129 0.283,-0.164 0.071,-0.04 0.191,-0.092 0.28,-0.127 0.066,-0.03 0.086,-0.08 0.062,-0.137 -0.023,-0.045 -0.082,-0.029 -0.208,0.014 m -1.684,-0.188 c -0.364,-0.48 -0.82,-0.674 -1.309,-0.283 -0.129,0.105 -0.22,0.189 -0.283,0.277 -0.04,0.053 -0.034,0.061 0.017,0.135 l 1.095,1.447 c 0.05,0.065 0.079,0.065 0.134,0.018 l 0.238,-0.192 c 0.613,-0.49 0.428,-0.974 0.108,-1.402 m 0.369,-0.227 c 0.416,0.553 0.267,1.26 -0.298,1.715 -0.14,0.112 -0.233,0.18 -0.314,0.241 -0.07,0.048 -0.138,0.097 -0.203,0.152 -0.066,0.053 -0.153,0.131 -0.194,0.18 -0.034,0.037 -0.069,0.082 -0.108,0.115 -0.044,0.035 -0.099,0.037 -0.137,-0.012 -0.044,-0.057 0.008,-0.096 0.066,-0.146 0.106,-0.094 0.086,-0.114 0.016,-0.211 l -1.26,-1.666 c 0.188,-0.131 0.305,-0.205 0.46,-0.362 0.068,-0.072 0.128,-0.138 0.173,-0.173 0.648,-0.518 1.35,-0.428 1.799,0.167 m -1.489,2.577 c -0.035,0.039 -0.093,0.043 -0.161,0.023 l -2.12,-0.598 -0.189,0.202 c 0.459,0.824 0.75,1.363 1.142,2.031 0.031,0.051 0.057,0.08 0.021,0.137 -0.07,0.099 -0.062,0.13 -0.023,0.164 0.044,0.035 0.1,0.021 0.139,-0.037 0.045,-0.092 0.143,-0.229 0.191,-0.303 0.057,-0.092 0.018,-0.168 -0.028,-0.244 l -0.977,-1.635 1.727,0.496 c 0.11,0.033 -0.11,0.238 -0.019,0.311 0.043,0.035 0.086,0.013 0.129,-0.049 0.051,-0.086 0.104,-0.172 0.153,-0.237 0.047,-0.064 0.092,-0.111 0.155,-0.185 0.051,-0.057 0.048,-0.113 0.005,-0.149 -0.029,-0.019 -0.057,-0.011 -0.145,0.073 m -1.438,2.074 c -0.021,-0.004 -0.044,0 -0.124,-0.01 l -0.043,0.166 -0.307,0.639 -1.886,-0.955 -0.209,0.343 1.921,0.977 c -0.082,0.188 -0.244,0.516 -0.244,0.516 -0.092,0.189 -0.116,0.121 -0.25,0.082 -0.06,-0.016 -0.125,-0.026 -0.147,0.019 -0.032,0.071 -0.002,0.096 0.057,0.129 0.075,0.039 0.169,0.082 0.262,0.125 0.11,0.053 0.147,0 0.182,-0.086 0.042,-0.097 0.08,-0.183 0.14,-0.324 0.178,-0.414 0.381,-0.824 0.575,-1.231 0.037,-0.072 0.091,-0.144 0.138,-0.208 0.012,-0.022 0.028,-0.038 0.035,-0.053 0.008,-0.02 0.029,-0.084 -0.034,-0.117 -0.031,-0.016 -0.036,-0.014 -0.066,-0.012 m -3.355,2.129 c -0.055,0.158 -0.097,0.431 -0.027,0.707 l 0.238,-0.02 c -0.086,-0.222 -0.074,-0.498 -0.037,-0.621 0.101,-0.291 0.307,-0.451 0.557,-0.363 0.125,0.047 0.164,0.187 0.19,0.342 0.048,0.238 0.046,0.49 0.14,0.717 0.07,0.175 0.182,0.341 0.432,0.429 0.345,0.123 0.681,-0.144 0.814,-0.539 0.043,-0.133 0.074,-0.305 0.107,-0.529 -0.157,-0.067 -0.273,-0.108 -0.369,-0.139 -0.045,-0.019 -0.098,-0.033 -0.124,0.043 -0.015,0.051 -0.008,0.092 0.152,0.184 0.068,0.037 0.119,0.162 0.039,0.396 -0.082,0.252 -0.256,0.412 -0.495,0.328 -0.165,-0.058 -0.188,-0.455 -0.204,-0.609 -0.016,-0.172 -0.04,-0.367 -0.117,-0.529 -0.071,-0.151 -0.203,-0.278 -0.392,-0.344 -0.411,-0.149 -0.767,0.133 -0.904,0.547 m 18.084,-3.733 c 0.186,-0.168 0.389,-0.429 0.075,-0.797 -0.032,-0.033 -0.047,-0.052 -0.071,-0.072 l -0.712,0.655 c -0.026,0.023 -0.038,0.044 0.001,0.089 l 0.078,0.092 c 0.238,0.276 0.424,0.221 0.629,0.033 m 1.729,-0.578 c -0.025,0.024 -0.053,0.02 -0.074,0.016 -0.074,-0.016 -0.164,-0.024 -0.237,-0.014 -0.339,0.043 -0.65,0.065 -0.992,0.106 0.065,0.209 0.078,0.584 -0.193,0.832 -0.277,0.252 -0.64,0.121 -0.867,-0.139 -0.098,-0.115 -0.187,-0.242 -0.284,-0.361 -0.058,-0.067 -0.183,-0.196 -0.234,-0.241 -0.039,-0.031 -0.086,-0.06 -0.117,-0.103 -0.039,-0.041 -0.053,-0.09 -0.005,-0.135 0.049,-0.049 0.089,-0.015 0.147,0.053 0.101,0.098 0.118,0.082 0.207,0.002 l 1.512,-1.391 0.227,0.338 -0.688,0.631 0.03,0.037 c 0.042,0.051 0.065,0.072 0.092,0.125 l 0.762,-0.082 c 0.251,-0.033 0.441,-0.094 0.637,0.133 0.052,0.058 0.102,0.168 0.077,0.193 m -8.164,-1.049 c -0.014,-0.07 0.058,-0.136 0.125,-0.07 0.205,0.211 0.448,0.627 0.61,1.309 0.508,2.125 0.132,4.841 0.132,4.847 -0.154,1.151 0.895,1.811 1.76,2.231 0.306,0.15 0.568,0.369 0.724,0.558 0.161,0.184 0.299,0.475 0.391,0.786 0.27,0.908 0.789,1.953 1.973,2.011 0.007,0 2.791,0.205 4.838,1.073 C 0.838,7.588 1.211,7.924 1.387,8.158 1.438,8.234 1.36,8.295 1.295,8.266 -0.624,7.494 -2.479,7.117 -4.501,7.094 L -4.696,7.088 C -5.4,7.068 -6.028,6.771 -6.476,6.305 -7.183,5.568 -7.003,4.281 -7.465,3.77 -7.932,3.262 -9.102,3.195 -9.804,2.395 -10.229,1.912 -10.468,1.227 -10.36,0.543 c 0,-0.002 0.026,-0.213 0.026,-0.215 0.339,-1.947 0.401,-3.779 -0.034,-5.762 m 1.176,0.711 c -0.015,-0.039 0.031,-0.068 0.067,-0.039 0.187,0.133 0.366,0.469 0.615,0.975 0.286,0.578 0.847,2.396 0.876,3.863 0.015,0.569 -0.015,1.135 -0.084,1.697 H -7.733 C -8.182,1.732 -8.517,1.367 -8.521,0.938 -8.517,0.885 -8.513,0.824 -8.51,0.77 -8.357,-1.055 -8.595,-2.918 -9.192,-4.723 m 1.332,1.395 c -0.043,-0.09 0,-0.113 0.066,-0.035 0.305,0.34 0.633,0.679 0.856,1.088 0.681,1.238 0.978,2.586 0.978,3.906 0,0.285 -0.018,0.57 -0.04,0.853 -0.016,0.063 -0.016,0.108 -0.004,0.125 0.011,0.022 0.052,0.018 0.117,0.022 0.29,0.023 0.577,0.06 0.863,0.111 1.328,0.235 2.634,0.758 3.758,1.633 0.37,0.287 0.654,0.662 0.941,1.016 0.066,0.08 0.035,0.121 -0.045,0.06 C -2.031,4.289 -3.897,3.615 -5.813,3.51 -6.024,3.502 -6.301,3.398 -6.517,3.227 -6.65,3.123 -6.754,2.988 -6.784,2.842 -6.868,2.645 -6.899,2.426 -6.876,2.258 -6.642,0.391 -6.982,-1.525 -7.86,-3.328 m 4.107,7.951 c 1.467,0.291 3.201,1.129 3.732,1.508 0.463,0.33 0.768,0.564 0.87,0.767 C 0.868,6.938 0.833,6.979 0.795,6.957 -0.911,6.059 -2.748,5.527 -4.607,5.348 -4.665,5.34 -4.724,5.334 -4.78,5.332 -5.21,5.246 -5.517,4.859 -5.476,4.408 c 0.577,0.033 1.151,0.104 1.723,0.215 m -7.187,0.391 c 0.225,0 0.404,-0.092 0.404,-0.168 0,-0.075 -0.179,-0.168 -0.404,-0.168 -0.221,0 -0.398,0.093 -0.398,0.168 0,0.076 0.177,0.168 0.398,0.168 m -1.055,0.656 c -0.697,0 -0.654,0.17 -0.669,0.225 0,0 0.181,0.355 0.67,0.355 0.484,0 0.618,-0.428 0.618,-0.428 0,0 -0.11,-0.152 -0.619,-0.152 m 1.055,-1.953 c -0.428,0 -0.778,0.355 -0.778,0.459 0,0.101 1.559,0.101 1.559,0 0,-0.104 -0.349,-0.459 -0.781,-0.459 m 1.037,1.953 c -0.512,0 -0.618,0.152 -0.618,0.152 0,0 0.129,0.428 0.618,0.428 0.485,0 0.668,-0.355 0.668,-0.355 C -9.251,5.84 -9.209,5.67 -9.903,5.67 m 1.149,-0.242 c -0.03,0.324 -0.073,0.91 -0.087,1.222 -0.894,0 -1.844,0.682 -2.109,1.11 -0.265,-0.428 -1.215,-1.11 -2.11,-1.11 -0.011,-0.312 -0.054,-0.898 -0.087,-1.222 -0.061,-0.594 0.152,-1.209 0.544,-1.651 0.204,-0.23 0.457,-0.453 0.739,-0.582 0.023,-0.009 0.051,-0.019 0.078,-0.029 l 0.135,-0.059 c 0.073,-0.041 0.118,-0.099 0.193,-0.152 0.208,-0.15 0.499,-0.142 0.508,-0.142 0.01,0 0.3,-0.008 0.51,0.142 0.07,0.053 0.114,0.111 0.193,0.152 l 0.134,0.059 c 0.028,0.01 0.052,0.02 0.077,0.029 0.282,0.129 0.535,0.352 0.738,0.582 0.396,0.442 0.607,1.057 0.544,1.651 m -3.899,4.166 c -0.731,-0.444 -0.946,-0.455 -0.946,-0.455 0,0 -0.004,-0.762 1.086,-0.344 0.385,0.15 1.548,0.801 1.351,1.078 -0.332,0.459 -0.901,0.09 -1.491,-0.279 m 1.02,-0.989 c -1.903,-1.091 -2.57,-0.085 -2.57,-0.085 0,0 -0.724,-0.832 0.472,-1.153 1.265,-0.342 2.121,0.432 2.322,0.578 0.379,0.28 0.459,1.049 -0.224,0.66 m 2.386,0.989 c 0.73,-0.444 0.973,-0.455 0.973,-0.455 0,0 -0.024,-0.762 -1.114,-0.344 -0.383,0.15 -1.549,0.801 -1.351,1.078 0.33,0.459 0.902,0.09 1.492,-0.279 m -1.02,-0.989 c 1.903,-1.091 2.598,-0.085 2.598,-0.085 0,0 0.695,-0.832 -0.501,-1.153 -1.263,-0.342 -2.12,0.432 -2.324,0.578 -0.376,0.28 -0.456,1.049 0.227,0.66 M -7.325,7.189 C -7.402,7.088 -7.767,6.65 -8.341,6.584 c 0.009,-0.232 0.013,-0.543 0.028,-0.789 0.938,0.127 1.339,0.834 0.988,1.394 M -8.296,5.109 C -8.32,4.834 -8.392,4.561 -8.505,4.303 -7.863,4.42 -7.453,4.795 -7.622,5.596 -7.683,5.469 -7.95,5.174 -8.296,5.174 Z m -5.292,0.672 c 0.018,0.25 0.021,0.551 0.028,0.789 -0.575,0.063 -0.941,0.5 -1.017,0.61 -0.352,-0.567 0.052,-1.272 0.989,-1.399 m -0.018,-0.623 c -0.345,0 -0.643,0.295 -0.702,0.424 -0.171,-0.801 0.269,-1.178 0.909,-1.293 -0.11,0.256 -0.18,0.531 -0.207,0.807 z m 2.624,16.274 c -7.529,0 -13.652,-7.349 -13.652,-16.383 0,-9.035 6.123,-16.383 13.652,-16.383 7.529,0 13.652,7.348 13.652,16.383 0,9.034 -6.123,16.383 -13.652,16.383 m 0,-32.282 c -7.267,0 -13.177,7.133 -13.177,15.899 0,8.767 5.91,15.899 13.177,15.899 7.267,0 13.178,-7.132 13.178,-15.899 0,-8.766 -5.911,-15.899 -13.178,-15.899 m 4.413,18.358 c -0.039,-0.697 0.781,0.496 0.113,1.437 -0.544,0.78 -1.045,1.825 -0.371,2.768 0.005,0.006 1.541,2.264 2.109,4.37 0.182,0.677 0.149,1.167 0.069,1.445 -0.024,0.09 -0.12,0.066 -0.137,0 -0.57,-1.949 -1.402,-3.604 -2.617,-5.167 l -0.11,-0.152 c -0.419,-0.547 -0.566,-1.217 -0.474,-1.85 0.174,-1.218 1.474,-1.822 1.418,-2.851 m 0.376,3.541 c -0.199,-0.381 -0.081,-0.858 0.286,-1.102 0.338,0.455 0.63,0.942 0.888,1.444 0.67,1.306 1.069,3.158 1.098,3.801 0.025,0.558 0.027,0.941 -0.068,1.142 -0.02,0.045 -0.071,0.04 -0.077,-0.001 -0.339,-1.87 -1.041,-3.608 -2.036,-5.144 z M -5.4,9.119 C -5.645,8.787 -5.75,8.004 -5.274,7.82 c 0.325,-0.132 1.33,-0.019 1.767,0.155 0.082,0.033 0.065,0.142 0,0.168 -0.387,0.164 -0.987,0.316 -1.25,0.377 0.883,1.322 1.447,2.912 1.447,4.625 0,0.46 -0.115,0.912 -0.218,1.354 -0.022,0.101 -0.071,0.101 -0.075,0 -0.101,-1.997 -0.712,-3.841 -1.797,-5.38 m -9.621,2.594 c 0.674,-0.943 0.171,-1.988 -0.371,-2.768 -0.664,-0.941 0.153,-2.134 0.112,-1.437 -0.055,1.029 1.244,1.633 1.42,2.851 0.09,0.633 -0.059,1.303 -0.477,1.85 l -0.11,0.152 c -1.21,1.563 -2.046,3.218 -2.612,5.167 -0.02,0.066 -0.114,0.09 -0.141,0 -0.075,-0.278 -0.112,-0.768 0.07,-1.445 0.57,-2.106 2.105,-4.364 2.109,-4.37 m -1.808,-0.322 c 0.259,-0.502 0.551,-0.989 0.875,-1.452 0.379,0.252 0.498,0.729 0.301,1.11 -0.032,0.045 -0.062,0.096 -0.093,0.14 -0.993,1.536 -1.698,3.274 -2.032,5.144 -0.009,0.041 -0.061,0.046 -0.08,0.001 -0.096,-0.201 -0.093,-0.584 -0.067,-1.142 0.028,-0.643 0.428,-2.495 1.096,-3.801 M -17.091,8.52 c -0.263,-0.061 -0.86,-0.213 -1.252,-0.377 -0.063,-0.026 -0.077,-0.135 0.005,-0.168 0.438,-0.174 1.442,-0.287 1.768,-0.155 0.474,0.184 0.37,0.967 0.123,1.299 -1.083,1.539 -1.697,3.383 -1.797,5.38 -0.003,0.101 -0.049,0.101 -0.073,0 -0.103,-0.442 -0.221,-0.894 -0.221,-1.354 0,-1.713 0.567,-3.303 1.447,-4.625 m 5.58,-8.192 c 0,0.002 0.025,0.213 0.025,0.215 0.108,0.684 -0.13,1.369 -0.552,1.852 -0.703,0.8 -1.877,0.867 -2.342,1.375 -0.463,0.511 -0.281,1.798 -0.991,2.535 -0.446,0.466 -1.076,0.763 -1.778,0.783 l -0.197,0.006 c -2.02,0.023 -3.875,0.4 -5.795,1.172 -0.066,0.029 -0.145,-0.032 -0.091,-0.108 0.176,-0.234 0.548,-0.57 1.202,-0.847 2.047,-0.868 4.83,-1.073 4.838,-1.073 1.184,-0.058 1.703,-1.103 1.971,-2.011 0.095,-0.311 0.232,-0.602 0.392,-0.786 0.156,-0.189 0.418,-0.408 0.724,-0.558 0.867,-0.42 1.912,-1.08 1.761,-2.231 0,-0.006 -0.376,-2.722 0.131,-4.847 0.162,-0.682 0.403,-1.098 0.61,-1.309 0.067,-0.066 0.141,0 0.125,0.07 -0.433,1.983 -0.371,3.815 -0.033,5.762 m -1.826,0.442 c 0.004,0.054 0.009,0.115 0.012,0.168 -0.006,0.429 -0.34,0.794 -0.786,0.835 h -0.018 c -0.066,-0.562 -0.099,-1.128 -0.083,-1.697 0.025,-1.467 0.59,-3.285 0.875,-3.863 0.25,-0.506 0.432,-0.842 0.617,-0.975 0.037,-0.029 0.081,0 0.07,0.039 -0.603,1.805 -0.838,3.668 -0.687,5.493 m -1.633,1.488 c 0.025,0.168 -0.009,0.387 -0.089,0.584 -0.034,0.146 -0.136,0.281 -0.27,0.385 -0.215,0.171 -0.49,0.275 -0.702,0.283 -1.917,0.105 -3.782,0.779 -5.443,1.941 -0.084,0.061 -0.113,0.02 -0.048,-0.06 0.291,-0.354 0.576,-0.729 0.946,-1.016 1.122,-0.875 2.427,-1.398 3.754,-1.633 0.286,-0.051 0.576,-0.088 0.862,-0.111 0.065,-0.004 0.108,0 0.117,-0.022 0.014,-0.017 0.015,-0.062 -0.003,-0.125 -0.023,-0.283 -0.04,-0.568 -0.04,-0.853 0,-1.32 0.299,-2.668 0.978,-3.906 0.223,-0.409 0.552,-0.748 0.856,-1.088 0.07,-0.078 0.111,-0.055 0.067,0.035 -0.876,1.803 -1.217,3.719 -0.985,5.586 m -1.4,2.15 c 0.041,0.451 -0.265,0.838 -0.694,0.924 -0.059,0.002 -0.117,0.008 -0.173,0.016 -1.86,0.179 -3.7,0.711 -5.404,1.609 -0.04,0.022 -0.077,-0.019 -0.057,-0.059 0.105,-0.203 0.41,-0.437 0.876,-0.767 0.53,-0.379 2.26,-1.217 3.735,-1.508 0.566,-0.111 1.14,-0.182 1.717,-0.215 m 5.104,12.288 c -0.438,-0.504 -0.517,-1.821 -0.567,-2.412 -0.439,0.392 -1.084,0.966 -1.684,0.984 -0.074,0.002 -0.168,-0.01 -0.083,-0.105 0.293,-0.317 0.981,-1.051 1.306,-1.405 0.153,-0.164 0.32,-0.225 0.476,-0.233 0.088,-0.005 0.141,0 0.186,0.006 0.029,0 0.115,0.032 0.134,0.051 0.055,0.029 0.107,0.07 0.16,0.123 0.114,0.127 0.197,0.288 0.196,0.508 0,0.496 10e-4,1.866 10e-4,2.401 0.003,0.135 -0.075,0.136 -0.125,0.082 m 0.554,-0.082 c 0,-0.535 0.003,-1.905 0,-2.401 0,-0.22 0.083,-0.381 0.188,-0.494 0.064,-0.067 0.117,-0.108 0.17,-0.137 0.019,-0.019 0.103,-0.051 0.133,-0.051 0.044,-0.006 0.099,-0.011 0.17,-0.01 0.171,0.012 0.339,0.073 0.493,0.237 0.323,0.354 1.01,1.088 1.303,1.405 0.087,0.095 -0.005,0.107 -0.078,0.105 -0.602,-0.018 -1.246,-0.592 -1.683,-0.984 -0.055,0.591 -0.145,1.908 -0.583,2.412 -0.051,0.054 -0.113,0.053 -0.113,-0.082"
             style="fill:#ffffff;fill-opacity:1;fill-rule:evenodd;stroke:none"
             id="path24" />
        </g>
        <path
           d="m 136.666,113.326 h 4.741 v -0.514 h -4.741 z m -10.552,-4.838 c -0.101,0 -0.144,0.039 -0.144,0.119 0,0.082 0,0.123 0.059,0.18 l 6.929,10.158 h -5.361 c -0.664,0 -1.03,-0.42 -1.09,-0.42 -0.041,0 -0.103,0.061 -0.082,0.141 l 0.164,0.76 c 0.02,0.101 0.059,0.181 0.139,0.181 0.062,0 0.245,-0.119 1.574,-0.119 h 6.136 l 0.102,-0.361 -6.71,-9.84 c 1.214,0.012 5.026,-0.127 6.699,-0.295 l 4.068,9.408 c 0.123,0.262 0.099,0.461 -0.043,0.741 l -0.219,0.463 h 1.328 c 0.082,0 0.162,-0.041 0.203,-0.143 l 4.621,-11.188 -1.351,-0.179 -2.108,5.199 -1.843,4.646 -2,-4.64 -2.059,-5.026 c -1.785,0.28 -8.014,0.559 -9.012,0.215 m -0.519,11 c 0,-0.099 -0.024,-0.244 -0.39,-0.263 -0.927,-0.037 -0.966,-0.258 -0.966,-1.059 v -9.848 l -0.787,-0.158 -7.224,9.846 h -0.019 v -9.668 l -0.625,-0.178 v 10.006 c 0,0.801 -0.038,1.022 -0.971,1.059 -0.363,0.019 -0.363,0.164 -0.363,0.263 0,0.139 0.064,0.219 0.184,0.198 0.685,-0.079 1.974,-0.118 2.481,-0.159 0.042,-0.06 0.102,-0.119 0.161,-0.203 l 6.516,-9.043 v 7.885 c 0,0.801 -0.038,1.022 -0.966,1.059 -0.363,0.019 -0.385,0.164 -0.385,0.263 0,0.139 0.08,0.198 0.201,0.198 0.284,0 1.209,-0.159 1.553,-0.159 0.322,0 1.131,0.159 1.393,0.159 0.121,0 0.207,-0.059 0.207,-0.198 m -13.882,-5.363 0.012,-0.443 h -0.118 -3.433 v -4.102 c 0,-0.658 0.019,-0.799 0.525,-0.881 0.404,-0.06 0.744,-0.101 1.311,-0.101 0.562,0 1.492,0.023 1.918,0.101 0.279,0.061 0.562,-0.039 0.685,0.699 0.141,0.764 0.283,0.803 0.381,0.803 0.123,0 0.123,-0.039 0.123,-0.24 0,-0.42 -0.02,-0.92 -0.041,-1.443 -0.019,-0.399 -0.098,-0.418 -0.463,-0.399 -0.525,0.02 -1.433,0.059 -2.16,0.078 -0.624,0.02 -1.978,0.039 -2.5,0.039 l -1.112,-0.076 v 10.006 c 0,0.801 -0.063,1.022 -0.988,1.059 -0.361,0.019 -0.361,0.142 -0.361,0.242 0,0.14 0.08,0.219 0.201,0.219 0.121,0 0.362,-0.036 0.684,-0.1 0.326,-0.059 0.889,-0.098 1.332,-0.098 0.527,0 2.039,0.02 2.664,0.039 0.724,0.02 1.149,0.041 1.676,0.059 0.36,0.021 0.441,0.021 0.461,-0.381 0.023,-0.517 0.043,-1.039 0.043,-1.459 0,-0.201 0,-0.242 -0.121,-0.242 -0.103,0 -0.243,0.041 -0.383,0.801 -0.121,0.742 -0.407,0.662 -0.686,0.722 -0.183,0.037 -0.549,0.037 -0.647,0.037 h -2.119 c -0.302,0 -0.423,-0.078 -0.423,-0.277 v -4.662 h 3.433 z m -7.785,5.283 c 0,-0.101 -0.162,-0.262 -0.686,-0.344 -0.402,-0.058 -0.441,-0.498 -0.441,-0.876 v -9.887 l -1.335,-0.123 v 10.01 c 0,0.398 -0.063,0.818 -0.401,0.876 -0.668,0.124 -0.769,0.243 -0.769,0.344 0,0.119 0.039,0.178 0.242,0.16 0.484,-0.041 1.25,-0.08 1.635,-0.08 0.383,0 1.028,0.039 1.515,0.08 0.199,0.018 0.24,-0.041 0.24,-0.16 m -4.913,-2.844 c 0,-2.062 -1.53,-3.482 -3.85,-3.482 -0.504,0 -1.172,0.359 -1.172,0.559 0,0.041 0.064,0.162 0.125,0.162 0.08,0 0.504,-0.24 0.947,-0.24 1.956,0 2.622,1.16 2.622,2.621 0,1.837 -0.804,2.871 -3.489,2.871 -0.484,0 -0.568,-0.1 -0.568,-0.616 V 108.318 L 92.3,108.16 v 10 c 0,0.795 -0.039,1.016 -0.97,1.057 -0.358,0.017 -0.38,0.154 -0.38,0.258 0,0.138 0.078,0.195 0.199,0.195 0.124,0 0.364,-0.035 0.689,-0.098 0.323,-0.056 0.968,-0.097 1.412,-0.097 0.685,0 1.755,0.078 2.442,0.078 1.53,0 3.323,-1.094 3.323,-2.989 m -8.557,-8.246 -4.617,11.19 c -0.046,0.099 -0.125,0.142 -0.205,0.142 h -1.332 l 0.221,-0.462 c 0.14,-0.282 0.163,-0.481 0.038,-0.741 l -4.433,-10.269 0.967,0.14 1.838,4.504 h 4.273 l 1.899,-4.683 z m -3.471,5.022 h -3.834 l 1.997,4.644 z m -7.581,-1.358 c 0,-2.521 -2.321,-4.003 -4.8,-4.003 -0.929,0 -2.847,0.302 -3.934,1.042 l 0.282,0.579 c 0.766,-0.661 2.783,-1.182 3.652,-1.182 1.956,0 3.794,1.125 3.794,3.125 0,1.299 -0.98,1.826 -2.227,2.357 -1.018,0.428 -2.167,0.954 -3.215,1.461 -1.545,0.746 -2.072,1.78 -2.102,3.299 -0.035,1.85 1.194,3.889 4.608,3.889 0.807,0 2.039,-0.16 3.068,-0.357 0.041,-0.785 0.061,-1.586 0.061,-2.205 0,-0.26 0,-0.301 -0.142,-0.301 -0.121,0 -0.179,0.041 -0.341,1.002 -0.138,0.781 -1.175,1.422 -2.789,1.422 -1.553,0 -3.554,-1.043 -3.554,-2.944 0,-3.48 7.639,-2.381 7.639,-7.184"
           style="fill:#7d0a27;fill-opacity:1;fill-rule:nonzero;stroke:none"
           id="path26" />
        <g
           id="g28"
           transform="translate(115.6875,104.0742)">
          <path
             d="m 0,0 h -0.597 c -0.181,0 -0.258,-0.072 -0.258,-0.281 v -3.498 c 0,-0.246 0.005,-0.264 0.173,-0.315 0.209,-0.06 0.465,-0.078 0.784,-0.078 1.271,0 1.765,0.889 1.765,2.104 C 1.867,-1.008 1.57,0 0,0 m 0.046,-4.369 c -0.214,0 -0.665,0.101 -1.026,0.08 l -0.486,-0.033 v 4.002 c 0,0.304 0,0.367 -0.343,0.384 -0.16,0.008 -0.187,0.041 -0.187,0.104 0,0.07 0.036,0.111 0.117,0.111 0.088,0 0.191,-0.023 0.276,-0.041 0.13,-0.023 0.363,-0.039 0.529,-0.039 0.159,0 0.32,0.008 0.477,0.016 0.202,0.008 0.429,0.015 0.771,0.015 1.357,0 2.365,-0.878 2.365,-2.207 0,-1.419 -0.936,-2.392 -2.493,-2.392"
             style="fill:#7d0a27;fill-opacity:1;fill-rule:nonzero;stroke:none"
             id="path30" />
        </g>
        <g
           id="g32"
           transform="translate(120.3525,104.0742)">
          <path
             d="m 0,0 c -0.148,-0.023 -0.148,-0.184 -0.148,-0.313 v -3.955 l -0.605,-0.046 v 4.001 c 0,0.135 -0.009,0.29 -0.129,0.313 -0.255,0.037 -0.334,0.047 -0.334,0.129 0,0.07 0.033,0.109 0.136,0.101 0.192,-0.015 0.494,-0.031 0.647,-0.031 0.153,0 0.41,0.016 0.6,0.031 C 0.272,0.238 0.306,0.199 0.306,0.129 0.306,0.057 0.198,0.031 0,0"
             style="fill:#7d0a27;fill-opacity:1;fill-rule:nonzero;stroke:none"
             id="path34" />
        </g>
        <g
           id="g36"
           transform="translate(124.9092,105.2344)">
          <path
             d="m 0,0 h -0.352 c -0.132,0 -0.204,-0.105 -0.204,-0.271 v -2.454 c 0.128,-0.015 0.182,-0.025 0.343,-0.025 1.262,0 1.455,0.895 1.455,1.525 C 1.242,-0.48 0.944,0 0,0 M 2.703,-5.578 C 2.671,-5.607 2.465,-5.625 2.328,-5.604 2.033,-5.555 1.842,-5.49 1.632,-5.18 L 1.289,-4.668 0.2,-2.918 C 0.035,-2.951 -0.006,-2.967 -0.342,-2.967 h -0.214 v -2.445 l -0.639,-0.086 v 5.057 c 0,0.384 -0.006,0.464 -0.448,0.488 -0.183,0.008 -0.222,0.016 -0.222,0.096 0,0.103 0.062,0.121 0.135,0.121 0.068,0 0.193,-0.026 0.35,-0.049 0.161,-0.024 0.518,-0.057 0.735,-0.057 0.358,0 0.727,0.049 1.083,0.049 0.804,0 1.489,-0.473 1.489,-1.311 0,-0.81 -0.614,-1.494 -1.111,-1.656 l 0.991,-1.619 c 0.289,-0.465 0.449,-0.777 0.881,-1.08 0.054,-0.039 0.062,-0.088 0.015,-0.127 z"
             style="fill:#7d0a27;fill-opacity:1;fill-rule:nonzero;stroke:none"
             id="path38" />
        </g>
        <g
           id="g40"
           transform="translate(130.4971,104.1309)">
          <path
             d="m 0,0 c -0.957,0 -1.709,-0.705 -1.709,-2.096 0,-1.22 0.574,-2.109 1.709,-2.109 1.223,0 1.711,0.889 1.711,2.109 C 1.711,-0.672 0.881,0 0,0 m 0,-4.426 c -1.365,0 -2.379,0.973 -2.379,2.322 0,1.424 1.197,2.327 2.379,2.327 1.237,0 2.383,-0.838 2.383,-2.327 0,-1.349 -1.016,-2.322 -2.383,-2.322"
             style="fill:#7d0a27;fill-opacity:1;fill-rule:nonzero;stroke:none"
             id="path42" />
        </g>
        <g
           id="g44"
           transform="translate(139.3838,104.1387)">
          <path
             d="m 0,0 c -0.393,-0.018 -0.383,-0.17 -0.346,-0.527 0.048,-0.424 0.459,-3.795 0.459,-3.795 l -0.679,-0.065 -0.402,3.715 -1.495,-3.443 -0.278,-0.049 -1.685,3.508 -0.287,-3.666 -0.579,-0.073 c 0.353,4.594 0.312,3.834 0.329,4.018 0.031,0.289 0,0.359 -0.344,0.377 -0.168,0.008 -0.191,0.07 -0.191,0.125 0,0.09 0.064,0.098 0.129,0.09 0.19,-0.024 0.64,-0.041 0.806,-0.057 0.112,-0.008 0.158,-0.033 0.241,-0.191 l 1.748,-3.619 1.537,3.601 c 0.062,0.155 0.158,0.201 0.269,0.209 0.175,0.016 0.618,0.024 0.799,0.049 C 0.104,0.215 0.191,0.191 0.191,0.111 0.191,0.055 0.17,0.008 0,0"
             style="fill:#7d0a27;fill-opacity:1;fill-rule:nonzero;stroke:none"
             id="path46" />
        </g>
        <g
           id="g48"
           transform="translate(142.4072,103.5801)">
          <path
             d="m 0,0 -0.727,-1.76 h 1.4 z m 1.543,-3.836 -0.75,1.838 h -1.647 l -0.72,-1.766 -0.481,-0.066 1.785,4.092 c 0.041,0.093 0.032,0.152 -0.017,0.254 l -0.109,0.242 h 0.585 c 0.051,0 0.1,-0.033 0.124,-0.08 L 2.16,-3.758 Z"
             style="fill:#7d0a27;fill-opacity:1;fill-rule:nonzero;stroke:none"
             id="path50" />
        </g>
        <g
           id="g52"
           transform="translate(75.5801,105.2109)">
          <path
             d="m 0,0 c -0.186,-0.033 -0.186,-0.264 -0.192,-0.408 0,-0.055 -0.041,-2.063 -0.161,-2.998 -0.087,-0.662 -0.375,-2.125 -2.005,-2.125 -1.637,0 -2.063,1.277 -2.174,2.14 -0.065,0.463 -0.087,1.871 -0.087,2.596 0,0.232 -0.016,0.387 -0.016,0.387 -0.009,0.176 -0.009,0.383 -0.16,0.408 -0.367,0.063 -0.416,0.07 -0.416,0.127 0,0.094 0.057,0.103 0.159,0.094 0.24,-0.016 0.566,-0.032 0.762,-0.032 0.188,0 0.453,0.016 0.69,0.032 0.108,0.009 0.162,0 0.162,-0.094 0,-0.057 -0.073,-0.08 -0.367,-0.127 -0.169,-0.033 -0.2,-0.211 -0.19,-0.408 0,0 0.021,-1.84 0.068,-2.742 0.081,-1.407 0.682,-2.135 1.569,-2.135 1.092,0 1.595,0.896 1.675,2.07 0.066,0.928 0.066,1.774 0.066,2.627 v 0.18 c 0,0.176 -0.009,0.383 -0.16,0.408 -0.369,0.063 -0.416,0.07 -0.416,0.127 0,0.094 0.055,0.103 0.161,0.094 0.238,-0.016 0.486,-0.032 0.679,-0.032 0.192,0 0.319,0.016 0.561,0.032 0.102,0.009 0.158,0 0.158,-0.094 C 0.366,0.07 0.295,0.047 0,0"
             style="fill:#7d0a27;fill-opacity:1;fill-rule:nonzero;stroke:none"
             id="path54" />
        </g>
        <g
           id="g56"
           transform="translate(81.0107,104.1387)">
          <path
             d="m 0,0 c -0.342,-0.018 -0.342,-0.08 -0.342,-0.385 v -0.39 -3.541 l -0.368,-0.079 -2.811,3.803 v -3.717 l -0.33,-0.093 v 3.875 0.142 c 0,0.305 0,0.367 -0.344,0.385 -0.168,0.008 -0.183,0.041 -0.183,0.096 0,0.07 0.032,0.127 0.12,0.119 0.27,-0.033 0.664,-0.049 0.878,-0.065 l 2.702,-3.697 v 2.772 0.39 c 0,0.305 0,0.367 -0.343,0.385 -0.161,0.008 -0.193,0.029 -0.193,0.096 0,0.078 0.048,0.119 0.118,0.119 0.114,0 0.483,-0.065 0.619,-0.065 0.127,0 0.447,0.065 0.551,0.065 0.072,0 0.119,-0.041 0.119,-0.119 C 0.193,0.029 0.161,0.008 0,0"
             style="fill:#7d0a27;fill-opacity:1;fill-rule:nonzero;stroke:none"
             id="path58" />
        </g>
        <g
           id="g60"
           transform="translate(83.2178,104.0742)">
          <path
             d="m 0,0 c -0.144,-0.023 -0.144,-0.184 -0.144,-0.313 v -3.955 l -0.608,-0.046 v 4.001 c 0,0.135 -0.01,0.29 -0.128,0.313 -0.256,0.037 -0.336,0.047 -0.336,0.129 0,0.07 0.034,0.109 0.134,0.101 0.194,-0.015 0.498,-0.031 0.65,-0.031 0.153,0 0.41,0.016 0.6,0.031 C 0.271,0.238 0.305,0.199 0.305,0.129 0.305,0.057 0.199,0.031 0,0"
             style="fill:#7d0a27;fill-opacity:1;fill-rule:nonzero;stroke:none"
             id="path62" />
        </g>
        <g
           id="g64"
           transform="translate(88.4424,104.1055)">
          <path
             d="m 0,0 c -0.145,-0.023 -0.225,-0.145 -0.277,-0.277 l -1.598,-4.022 -0.426,-0.047 -1.607,3.987 c -0.038,0.089 -0.071,0.222 -0.125,0.304 -0.033,0.055 -0.083,0.08 -0.186,0.088 -0.159,0.008 -0.189,0.03 -0.189,0.096 0,0.07 0.046,0.127 0.127,0.119 0.189,-0.023 0.509,-0.033 0.677,-0.049 0.176,-0.015 0.223,-0.142 0.272,-0.279 l 1.375,-3.635 1.365,3.445 c 0.041,0.094 -0.021,0.223 -0.135,0.239 -0.302,0.047 -0.343,0.094 -0.343,0.135 0,0.064 0.023,0.103 0.136,0.095 0.191,-0.015 0.392,-0.031 0.542,-0.031 0.155,0 0.279,0.016 0.472,0.031 C 0.191,0.207 0.217,0.168 0.217,0.104 0.217,0.057 0.167,0.033 0,0"
             style="fill:#7d0a27;fill-opacity:1;fill-rule:nonzero;stroke:none"
             id="path66" />
        </g>
        <g
           id="g68"
           transform="translate(91.8721,99.9258)">
          <path
             d="m 0,0 c -0.006,-0.182 -0.063,-0.197 -0.223,-0.189 -0.615,0.023 -1.229,0.085 -1.847,0.048 l -0.478,-0.033 v 4.01 c 0,0.305 -0.007,0.369 -0.354,0.385 -0.158,0.008 -0.182,0.033 -0.182,0.095 0,0.071 0.041,0.112 0.121,0.112 0.087,0 0.191,-0.024 0.279,-0.041 0.129,-0.024 0.352,-0.039 0.52,-0.039 0.576,0 1.144,0.015 1.715,0.039 0.162,0.008 0.217,0 0.226,-0.182 0.008,-0.211 0.016,-0.416 0.016,-0.576 0,-0.121 -0.025,-0.137 -0.086,-0.137 -0.139,0 -0.107,0.487 -0.242,0.576 C -0.64,4.133 -0.936,4.156 -1,4.156 H -1.813 C -1.932,4.156 -1.94,4.133 -1.94,4.084 V 2.221 h 0.852 c 0.108,0 0.329,0.009 0.355,0.146 0.053,0.295 0.08,0.352 0.151,0.352 0.087,0 0.096,-0.057 0.087,-0.135 -0.017,-0.186 -0.032,-0.32 -0.032,-0.467 0,-0.142 0.015,-0.287 0.032,-0.469 0.009,-0.082 0,-0.136 -0.087,-0.136 -0.071,0 -0.098,0.054 -0.151,0.349 -0.026,0.137 -0.218,0.153 -0.355,0.153 H -1.94 V 0.385 c 0,-0.256 0.008,-0.287 0.175,-0.311 0.152,-0.025 0.29,-0.041 0.511,-0.041 0.147,0 0.839,0.008 0.935,0.072 0.136,0.088 0.104,0.6 0.248,0.6 0.065,0 0.088,-0.016 0.088,-0.135 C 0.017,0.408 0.009,0.211 0,0"
             style="fill:#7d0a27;fill-opacity:1;fill-rule:nonzero;stroke:none"
             id="path70" />
        </g>
        <g
           id="g72"
           transform="translate(94.4033,104.0977)">
          <path
             d="M 0,0 H -0.232 C -0.393,0 -0.44,-0.078 -0.44,-0.193 v -1.924 c 0.095,-0.008 0.143,-0.018 0.272,-0.018 0.998,0 1.108,0.682 1.108,1.184 C 0.94,-0.357 0.75,0 0,0 m 1.918,-4.434 c -0.289,0 -0.506,0.104 -0.674,0.344 l -0.281,0.406 -0.9,1.373 C -0.07,-2.342 -0.119,-2.342 -0.272,-2.342 H -0.44 v -1.939 l -0.609,-0.073 v 4.01 c 0,0.297 -0.008,0.367 -0.349,0.385 -0.161,0.008 -0.187,0.041 -0.187,0.096 0,0.078 0.05,0.119 0.121,0.119 0.087,0 0.193,-0.024 0.28,-0.041 0.127,-0.024 0.496,-0.039 0.663,-0.039 0.289,0 0.584,0.031 0.873,0.031 0.638,0 1.236,-0.369 1.236,-1.047 0,-0.74 -0.608,-1.197 -0.957,-1.328 1.021,-1.523 0.798,-1.187 1.191,-1.787 0.057,-0.088 0.175,-0.217 0.271,-0.303 0.056,-0.047 0.11,-0.055 0.11,-0.119 0,-0.057 -0.173,-0.057 -0.285,-0.057"
             style="fill:#7d0a27;fill-opacity:1;fill-rule:nonzero;stroke:none"
             id="path74" />
        </g>
        <g
           id="g76"
           transform="translate(98.5342,99.7051)">
          <path
             d="m 0,0 c -0.297,0 -0.799,0.088 -1.174,0.344 l 0.12,0.277 c 0.279,-0.238 0.789,-0.4 1.054,-0.4 0.607,0 1.081,0.306 1.081,0.904 0,0.318 -0.28,0.504 -0.53,0.648 -0.401,0.229 -0.827,0.389 -1.172,0.711 -0.266,0.239 -0.473,0.524 -0.473,1.036 0,0.671 0.631,1.128 1.401,1.128 0.253,0 0.572,-0.048 0.931,-0.119 0.018,-0.281 0.018,-0.525 0.018,-0.718 0,-0.09 0,-0.137 -0.08,-0.137 -0.08,0 -0.104,0.047 -0.152,0.346 -0.039,0.21 -0.271,0.386 -0.76,0.386 -0.529,0 -0.984,-0.244 -0.984,-0.812 0,-0.176 0.104,-0.28 0.236,-0.399 C -0.287,3.002 0.042,2.867 0.287,2.748 0.593,2.604 0.905,2.441 1.137,2.205 1.344,1.986 1.479,1.676 1.479,1.293 1.479,0.469 0.801,0 0,0"
             style="fill:#7d0a27;fill-opacity:1;fill-rule:nonzero;stroke:none"
             id="path78" />
        </g>
        <g
           id="g80"
           transform="translate(102.0996,104.0742)">
          <path
             d="m 0,0 c -0.143,-0.023 -0.143,-0.184 -0.143,-0.313 v -3.955 l -0.612,-0.046 v 4.001 c 0,0.135 -0.004,0.29 -0.125,0.313 -0.256,0.037 -0.337,0.047 -0.337,0.129 0,0.07 0.035,0.109 0.138,0.101 0.189,-0.015 0.493,-0.031 0.644,-0.031 0.157,0 0.412,0.016 0.605,0.031 C 0.271,0.238 0.302,0.199 0.302,0.129 0.302,0.057 0.2,0.031 0,0"
             style="fill:#7d0a27;fill-opacity:1;fill-rule:nonzero;stroke:none"
             id="path82" />
        </g>
        <g
           id="g84"
           transform="translate(107.0098,103.9609)">
          <path
             d="m 0,0 -0.256,0.049 h -1.43 v -4.203 l -0.611,-0.063 v 4.266 c -0.375,0.01 -1.123,0 -1.123,0 -0.334,0 -0.377,-0.074 -0.406,-0.24 -0.016,-0.079 0,-0.352 -0.121,-0.352 h -0.017 c -0.08,0 -0.095,0.049 -0.095,0.137 0,0.158 0,0.365 0.006,0.576 0.009,0.184 0.065,0.189 0.227,0.184 0.207,-0.01 0.383,-0.018 0.669,-0.026 0.854,-0.031 1.726,-0.015 2.581,-0.015 0.222,0 0.475,0.08 0.589,0.08 0.034,0 0.091,-0.016 0.091,-0.08 C 0.104,0.193 0.063,0.178 0,0"
             style="fill:#7d0a27;fill-opacity:1;fill-rule:nonzero;stroke:none"
             id="path86" />
        </g>
        <g
           id="g88"
           transform="translate(110.6953,99.7441)">
          <path
             d="m 0,0 -0.752,1.838 h -1.644 l -0.721,-1.766 -0.482,-0.064 1.785,4.09 c 0.04,0.093 0.033,0.152 -0.016,0.256 l -0.111,0.24 h 0.591 c 0.045,0 0.094,-0.033 0.121,-0.08 L 0.617,0.078 Z M -1.542,3.836 -2.27,2.076 h 1.401 z m 0.318,1.059 h 0.228 L -1.938,5.836 C -2.043,5.939 -2.11,5.98 -2.182,5.98 c -0.117,0 -0.226,-0.082 -0.226,-0.234 0,-0.098 0.047,-0.148 0.277,-0.289 z"
             style="fill:#7d0a27;fill-opacity:1;fill-rule:evenodd;stroke:none"
             id="path90" />
        </g>
      </g>
    </g>
  </g>
</svg>
