<?xml version="1.0" encoding="utf-8"?>
<!-- Generator: Adobe Illustrator 24.1.1, SVG Export Plug-In . SVG Version: 6.00 Build 0)  -->
<svg version="1.1" id="Layer_1" xmlns="http://www.w3.org/2000/svg" xmlns:xlink="http://www.w3.org/1999/xlink" x="0px" y="0px"
	 viewBox="0 0 512 512" style="enable-background:new 0 0 512 512;" xml:space="preserve">
<g>
	<path d="M25.6,179.2H256c14.1,0,25.6-11.5,25.6-25.6c0-14.1-11.5-25.6-25.6-25.6H25.6C11.5,128,0,139.5,0,153.6
		C0,167.7,11.5,179.2,25.6,179.2z"/>
	<path d="M504.5,340.3c-10-10-26.2-10-36.2,0L409.6,399V153.6c0-14.1-11.5-25.6-25.6-25.6c-14.1,0-25.6,11.5-25.6,25.6V399
		l-58.7-58.7c-10-10-26.2-10-36.2,0c-10,10-10,26.2,0,36.2l102.4,102.4c0.3,0.3,0.6,0.6,0.9,0.9c0.1,0.1,0.3,0.2,0.4,0.4
		c0.2,0.2,0.4,0.3,0.5,0.5c0.2,0.2,0.4,0.3,0.6,0.4c0.1,0.1,0.3,0.2,0.4,0.3c0.2,0.2,0.4,0.3,0.6,0.5c0.1,0.1,0.2,0.2,0.4,0.3
		c0.2,0.2,0.5,0.3,0.7,0.4c0.1,0.1,0.2,0.2,0.4,0.2c0.2,0.1,0.5,0.3,0.7,0.4c0.1,0.1,0.3,0.2,0.4,0.2c0.2,0.1,0.4,0.2,0.7,0.3
		c0.2,0.1,0.3,0.2,0.5,0.2c0.2,0.1,0.4,0.2,0.6,0.3c0.2,0.1,0.4,0.2,0.6,0.2c0.2,0.1,0.4,0.1,0.5,0.2c0.2,0.1,0.4,0.2,0.7,0.2
		c0.2,0.1,0.3,0.1,0.5,0.2c0.2,0.1,0.5,0.2,0.7,0.2c0.1,0,0.3,0.1,0.4,0.1c0.3,0.1,0.5,0.1,0.8,0.2c0.1,0,0.3,0.1,0.4,0.1
		c0.3,0.1,0.6,0.1,0.8,0.2c0.1,0,0.3,0,0.4,0.1c0.3,0.1,0.6,0.1,0.8,0.1c0.2,0,0.3,0,0.5,0.1c0.3,0,0.5,0.1,0.8,0.1
		c0.2,0,0.4,0,0.6,0c0.2,0,0.4,0,0.6,0c0.4,0,0.7,0,1.1,0c0.1,0,0.1,0,0.2,0c0.1,0,0.1,0,0.2,0c0.4,0,0.7,0,1.1,0c0.2,0,0.4,0,0.6,0
		c0.2,0,0.4,0,0.6,0c0.3,0,0.5-0.1,0.8-0.1c0.2,0,0.3,0,0.5-0.1c0.3,0,0.6-0.1,0.8-0.1c0.1,0,0.3,0,0.4-0.1c0.3-0.1,0.6-0.1,0.8-0.2
		c0.1,0,0.3-0.1,0.4-0.1c0.3-0.1,0.5-0.1,0.8-0.2c0.1,0,0.3-0.1,0.4-0.1c0.2-0.1,0.5-0.2,0.7-0.2c0.2-0.1,0.3-0.1,0.5-0.2
		c0.2-0.1,0.4-0.2,0.7-0.2c0.2-0.1,0.4-0.1,0.5-0.2c0.2-0.1,0.4-0.2,0.6-0.2c0.2-0.1,0.4-0.2,0.6-0.3c0.2-0.1,0.3-0.2,0.5-0.2
		c0.2-0.1,0.4-0.2,0.6-0.3c0.1-0.1,0.3-0.2,0.4-0.2c0.2-0.1,0.5-0.3,0.7-0.4c0.1-0.1,0.3-0.2,0.4-0.2c0.2-0.1,0.5-0.3,0.7-0.4
		c0.1-0.1,0.3-0.2,0.4-0.3c0.2-0.1,0.4-0.3,0.6-0.5c0.1-0.1,0.3-0.2,0.4-0.3c0.2-0.1,0.4-0.3,0.5-0.4c0.2-0.2,0.4-0.3,0.6-0.5
		c0.1-0.1,0.3-0.2,0.4-0.3c0.3-0.3,0.6-0.6,0.9-0.9l102.4-102.4C514.5,366.5,514.5,350.3,504.5,340.3z"/>
	<path d="M25.6,76.8h332.8c14.1,0,25.6-11.5,25.6-25.6c0-14.1-11.5-25.6-25.6-25.6H25.6C11.5,25.6,0,37.1,0,51.2
		C0,65.3,11.5,76.8,25.6,76.8z"/>
	<path d="M281.6,256c0-14.1-11.5-25.6-25.6-25.6H25.6C11.5,230.4,0,241.9,0,256c0,14.1,11.5,25.6,25.6,25.6H256
		C270.1,281.6,281.6,270.1,281.6,256z"/>
</g>
</svg>
